<svg id="Layer_1" xmlns="http://www.w3.org/2000/svg" viewBox="0 0 330 330"><defs><clipPath id="clippath"><rect class="cls-25" x="92.19" y="215.48" width="31.08" height="31.08" rx="1" ry="1"/></clipPath><clipPath id="clippath-1"><rect class="cls-25" x="172.83" y="215.48" width="31.08" height="31.08" rx="1" ry="1"/></clipPath><clipPath id="clippath-2"><rect class="cls-25" x="132.51" y="215.48" width="31.08" height="31.08" rx="1" ry="1"/></clipPath><mask id="mask" x="214.55" y="57.3" width="31.21" height="11.29" maskUnits="userSpaceOnUse"><path class="cls-30" d="M214.55 57.3h31.21v11.29h-31.21V57.3z" id="mask0_915_3368"/></mask><mask id="mask-1" x="214.28" y="28.63" width="30.5" height="11.64" maskUnits="userSpaceOnUse"><path class="cls-30" d="M214.28 28.63h30.5v11.64h-30.5V28.63z" id="mask1_915_3368"/></mask><mask id="mask-2" x="242.77" y="33.58" width="8.83" height="29.15" maskUnits="userSpaceOnUse"><path class="cls-30" d="M242.77 33.58h8.83v29.15h-8.83V33.58z" id="mask2_915_3368"/></mask><style>.cls-10,.cls-11,.cls-12,.cls-14,.cls-15,.cls-19,.cls-2,.cls-4,.cls-5,.cls-8,.cls-9{stroke-linecap:round}.cls-10,.cls-11,.cls-12,.cls-19,.cls-2,.cls-4,.cls-5,.cls-8,.cls-9{stroke-linejoin:round}.cls-2,.cls-20{fill:#34a853}.cls-10,.cls-11,.cls-12,.cls-19,.cls-21,.cls-22,.cls-25,.cls-5,.cls-8,.cls-9{stroke:#1f1f1f}.cls-14,.cls-2{stroke:#34a853}.cls-26,.cls-4{fill:#4285f4}.cls-15,.cls-4{stroke:#4285f4}.cls-5{fill:#1f1f1f}.cls-27,.cls-8{fill:#ea4335}.cls-21,.cls-28,.cls-30,.cls-9{fill:#fff}.cls-10,.cls-31{fill:#ff8b69}.cls-11{fill:#933222}.cls-12,.cls-14,.cls-15,.cls-19,.cls-25{fill:none}.cls-35{fill:#fbbc04}.cls-14,.cls-15,.cls-21,.cls-22,.cls-25{stroke-miterlimit:10}.cls-19{stroke-width:2px}.cls-22{fill:#dadce0}.cls-20,.cls-26,.cls-27,.cls-30,.cls-40{fill-rule:evenodd}.cls-40{fill:#fbbc05}</style></defs><path d="M73.55 290.8s10.74-16.22 29.99-16.22 33.79 10.73 61.99 10.73 49.01-19.32 78.1-19.32c12.31 0-2.46 17.65 3.58 17.65 10.07 0 14.32 7.16 14.32 7.16H73.55z" fill="#aecbfa"/><path d="M82.2 148.22a4.87 4.87 0 014.87-4.87h155.86a4.87 4.87 0 014.87 4.87v112.49a4.87 4.87 0 01-4.87 4.87H87.07a4.87 4.87 0 01-4.87-4.87V148.22z" stroke="#3d4043" stroke-miterlimit="10" fill="#fff"/><path fill="#f1f3f4" stroke="#1f1f1f" stroke-linejoin="round" stroke-linecap="round" d="M247.66 253.56l-165.37.47V151.36l165.37-.47v102.67z"/><g clip-path="url(#clippath)"><rect class="cls-28" x="92.19" y="215.48" width="31.08" height="31.08" rx="1" ry="1"/><path class="cls-5" d="M117.43 241.02l-4.68-1.15c-3.03-.28-4.55-.35-7.93.59-3.13.87-5.03 1.6-6.79 3.41-1.64 1.68-3.4 3.57-3.5 4.02.95-.96 23.72 0 25.58-.42.91-.21.96-1.43.74-2.68-.3-1.74-1.72-3.32-3.42-3.77zM103.37 229.86a5.56 5.56 0 000-11.12 5.56 5.56 0 000 11.12z"/><path class="cls-11" d="M105.05 240.47s-2.29 7.57.96 7.57 8.92-7.57 8.92-7.57l-2.65-.63s-1.4-2.95-1.4-4.5h-3.03s-.4 3.15-1.27 4.78c0 0-.69.1-1.53.35z"/><path class="cls-5" d="M111.2 237.03s-2.09 1.21-4.07 1.73c0 0 .73-2.31.73-3.42h3.03s.18 1.28.31 1.69z"/><path class="cls-11" d="M104.21 230.4s1.47 5.27 5.56 5.27c3.32 0 3.44-5.46 2.95-7.33-.89-4.97-10.04-4.77-8.52 2.07z"/><path class="cls-5" d="M112.73 228.34c-.89-4.97-10.04-4.77-8.52 2.07 0 0 .15.52.47 1.24.48-.54 1.57-1.9 1.64-3.35 0 0 2.17 2.26 6.4.05z"/><path d="M105.12 238.76c1.49 0 2.71-1.21 2.71-2.71s-1.21-2.71-2.71-2.71-2.71 1.21-2.71 2.71 1.21 2.71 2.71 2.71z" stroke="#fbbc04" stroke-miterlimit="10" fill="none"/></g><rect class="cls-25" x="92.19" y="215.48" width="31.08" height="31.08" rx="1" ry="1"/><path class="cls-22" d="M183.63 290.42h-41.4c5.03-4.32 8.42-10.79 9.43-18.03l.95-6.81h20.64l.95 6.81c1.01 7.23 4.4 13.71 9.43 18.03z"/><path class="cls-5" d="M173.85 271.1l-21.27-5.23.04-.29h20.48l.74 5.46v.06z"/><path class="cls-12" d="M82.2 148.35c0-2.76 2.24-5 5-5h155.6c2.76 0 5 2.24 5 5v112.23c0 2.76-2.24 5-5 5H87.2c-2.76 0-5-2.24-5-5V148.35z"/><path class="cls-2" d="M51.53 236.5c-.25-5.59 3.23-10.38 7.78-10.38s8.03 4.8 7.78 10.38l-1.6 36.09H53.13l-1.6-36.09z"/><path class="cls-2" d="M38.66 260.47c-1.88-3.72-2.8-9.43.46-10.64 4.35-1.61 8.53 2.43 10.32 7.38 1.66 4.62 5.17 15.39 5.17 15.39h-9.43l-6.52-12.12z"/><path class="cls-12" d="M60.98 272.39l2.74-38.16c0-5.16-2.52-8.11-4.14-8.11-1.45 0-4.5 3.49-4.5 8.11l.94 38.16M52.49 272.39s-4.84-12.49-6.7-16.25c-2.34-4.72-5.39-7.03-6.67-6.31-1.53.85-.43 4.5 1.55 8.49 1.87 3.77 8.37 14.07 8.37 14.07"/><path class="cls-28" d="M55.87 290.39c9.83 0 17.79-7.97 17.79-17.79H38.08c0 9.82 7.96 17.79 17.79 17.79z"/><path class="cls-9" d="M61.04 290.42c8.22-1.57 12.62-9.15 12.62-17.83H43.28"/><rect class="cls-21" x="92.64" y="156.32" width="111.02" height="51.39" rx="1" ry="1"/><rect class="cls-21" x="211.93" y="156.1" width="27.49" height="90.46" rx="1" ry="1"/><path class="cls-19" d="M239.43 178.49v68.07H216.8"/><path class="cls-5" d="M98.02 265.03h20.07l-1.93-5.76-20.07.24 1.93 5.52z"/><path d="M92.72 281.26h22.17c.81-2.53 1.23-5.18 1.23-7.84v-14.33H93.95v14.33c0 2.66-.42 5.3-1.23 7.84z" fill="#e46962" stroke="#1f1f1f" stroke-linejoin="round" stroke-linecap="round"/><path class="cls-12" d="M98.25 264.51h10.21"/><path class="cls-5" d="M278.79 245.13h-1.28v3.53h1.28v-3.53z"/><path d="M279.72 248.67h-3.15v17.05h3.15v-17.05z" fill="#4285f4" stroke="#1f1f1f" stroke-linejoin="round" stroke-linecap="round"/><path d="M269.09 252.23l-3 .99 4.75 14.45 3-.99-4.75-14.45z" stroke="#1f1f1f" fill="#34a853" stroke-linejoin="round" stroke-linecap="round"/><path class="cls-8" d="M288.62 251.59l-3.02-.91-5.23 17.26 3.02.91 5.23-17.26z"/><path class="cls-8" d="M288.62 251.59l-3.02-.91-2.21 7.29 3.02.92 2.21-7.3z"/><path class="cls-12" d="M288.18 262.34l2.25-7.41-2.61-.7"/><path class="cls-28" d="M280.16 290.46h-12.49L264 265.72h23.21l-.86 3.12"/><path class="cls-9" d="M267.66 290.46l-3.67-24.74h23.21l-2.69 10.33"/><path class="cls-19" d="M123.27 225.22v21.34H92.13"/><g clip-path="url(#clippath-1)"><rect class="cls-28" x="172.83" y="215.48" width="31.08" height="31.08" rx="1" ry="1"/><path d="M187.23 239.54l5.46-2.69 3.97 1.62s2.85 1.23 3.36 2.85c.5 1.62 3.47 11.75 3.47 15.34.22 3.3-5.16 5.6-5.16 5.6v.04c-.06 1.65-.1 2.69.07 4.66h-18.47l-1.69-13.88c-3.47 1.73-7.33-.34-9.9-.34-2.24 0-13.4-5.09-15.42-6.49l.87-4.93 19 11.14c1.36-4.47 2.98-8.06 4.79-11.81 3.3-2.13 3.86-2.63 7.28-3.81l2.38 2.69z" fill="#fad2cf" stroke="#1f1f1f" stroke-linejoin="round" stroke-linecap="round"/><path class="cls-5" d="M182.52 222.97c-.37 2.1.28 2.91 1.36 3.81l7.1 5.09c5.4-3.69 3.29-8.28 1.59-8.9-1.59-3.13-5.62-1.46-6.65-2.74-1.02-1.29-3.08.87-3.41 2.74z"/><path d="M185.84 233.75c-2.35.78-2.81-4.46-1.91-7.54 2.24-1.3 5.15-.09 6.16.62-.28.95-.49 2.66.9 1.9 1.73-.95 2.24-.5.28 2.69-1.57 2.55-.09 4.88.83 5.69l-4.81 2.44-2.44-2.44c.49-1.57 1.21-2.87 1.01-3.36z" fill="#dba77f" stroke-miterlimit="10" stroke="#1f1f1f"/><path class="cls-28" d="M188.01 232.77c-.48.23-1.79.97-2.45 1.11"/><path d="M188.01 232.77c-.48.23-1.79.97-2.45 1.11" stroke-dasharray="0 2.69" stroke-miterlimit="10" fill="none" stroke="#1f1f1f" stroke-linecap="round"/></g><rect class="cls-25" x="172.83" y="215.48" width="31.08" height="31.08" rx="1" ry="1"/><path class="cls-19" d="M203.91 225.22v21.34h-23.22"/><g clip-path="url(#clippath-2)"><rect class="cls-28" x="132.51" y="215.48" width="31.08" height="31.08" rx="1" ry="1"/><path class="cls-22" d="M129.22 240s6.01-6.39 7.35-8.4 1.21-11.59 8.68-12.02c6.26-.37 7.73 3.72 8.11 6.11s2.48 3.05 4.48 3.34 3.91.57 6.01 2.86c0 0 .38 2.96 2.96 3.05v8.4l-38.07 8.76s.72-11.86.48-12.1z"/><path class="cls-10" d="M151.48 237.13c-2.43-1.97-2.95-3.88-2.95-3.88h-4.61s.49 2.83-2.29 5.16c-.17.14-.37.24-.58.31-3.85 1.25-6.21 2.91-7.23 3.74 14.91 2.18 22.76-3.09 24.87-4.81-2.62-.38-5.02-.54-7.21-.52z"/><path d="M158.69 237.65c-2.1 1.72-10.36 7.14-25.17 5.01-2.93 1.98-8.11 12.17-8.11 12.17l31.09 3.67 10.15-16.08s7.28-3.03-7.96-4.77z" fill="#d2e3fc" stroke-miterlimit="10" stroke="#1f1f1f"/><path class="cls-10" d="M145.91 234.94c4.68 0 5.45-6.68 5.45-6.68-3.15 0-5.25-3.91-5.25-3.91-1.43 4.39-5.53 3.53-5.53 3.53s1.23 7.06 5.34 7.06z"/></g><rect class="cls-25" x="132.51" y="215.48" width="31.08" height="31.08" rx="1" ry="1"/><path class="cls-19" d="M163.59 225.22v21.34h-26.22"/><path class="cls-12" d="M214.83 159.17h4.76v4.76h-4.76zM222.34 161.39h10.99M214.83 167.63h4.76v4.76h-4.76zM222.34 169.85h10.99M214.83 176.09h4.76v4.76h-4.76zM222.34 178.31h10.99M214.83 184.54h4.76v4.76h-4.76zM222.34 186.76h10.99"/><g><circle class="cls-35" cx="213.65" cy="282.99" r="6.89"/><circle class="cls-9" cx="213.65" cy="282.99" r="2.73"/><path class="cls-35" d="M218.83 280.65h19.48v4.74h-19.48z"/><path class="cls-35" transform="rotate(90 233.215 287.365)" d="M230.57 285h5.29v4.73h-5.29z"/><path class="cls-12" d="M218.56 287.78c-2.69 2.69-7.05 2.69-9.74 0s-2.69-7.05 0-9.74M220.3 285.4h10.47v4.61"/></g><path class="cls-14" d="M132.92 21.48s70.73-26.03 115.53 31.15c33.68 42.99-15.67 47.83-66.73 29.64"/><path d="M12.43 124.7c19.59-59.27 75.62-66.93 131.11-56.76 0 0 18.03 7.17 40.25 15.07" stroke="#fbbc04" stroke-miterlimit="10" fill="none" stroke-linecap="round"/><path d="M168.95 172.85C139.5 183.82 38.02 208.4 32.5 137.18c-.34-4.32-.02-8.67.98-12.89 2.16-9.1 7.82-24.53 21.56-26.59 16.13-2.41 34.29 25.53-2.94 51.24-58.8 40.63-39.67-24.24-39.67-24.24" stroke="#ea4335" stroke-miterlimit="10" fill="none" stroke-linecap="round"/><path class="cls-15" d="M168.95 172.85c33.23-12.38 85.36-78.19 117.61-47.89 7.59 7.13 11.81 12.89 14.54 17.11 7.61 11.72-.19 22.8-12.89 7.42"/><path class="cls-15" d="M288.22 149.49c-8.36-11.56-14.2-33.59-12.04-50.87 1.84-14.69 22.78-20.2 39.89 15.75"/><path class="cls-9" d="M164.56 63.39c-.51 0-1.01.05-1.49.13.64-1.74 1-3.61 1-5.56 0-8.93-7.24-16.17-16.17-16.17-8.06 0-14.72 5.9-15.95 13.61-.26-.02-.52-.04-.79-.04-4.78 0-8.71 3.66-9.13 8.33h-1.26c-.73-.19-1.5-.3-2.29-.3a9.18 9.18 0 00-9.18 9.18c0 4.81 3.69 8.74 8.4 9.14v.04h46.87a9.18 9.18 0 100-18.36zM262.83 114.8c0-8.93-7.24-16.17-16.17-16.17-8.19 0-14.93 6.09-16.01 13.98h-11.24v.06c-4.7.4-8.4 4.33-8.4 9.14s3.69 8.74 8.4 9.14v.04h28.19v-.05c8.49-.49 15.22-7.51 15.22-16.13z"/><g><path class="cls-4" d="M103.61 207.85c3.87-20.71 19.39-28.25 30.38-34.63 2.51 3.41 7.36 7.56 16.11 7.56 6.44 0 11.64-3.5 15.06-6.72 2.92 1.93 5.89 4.03 8.21 6.72l-1.01-9.16 12.22-3.14c15.53 38.06 4.92 38.25 4.92 38.25h-34.06"/><path class="cls-10" d="M155.45 207.36s.48-4.07 1.84-6.4c2.4.47 9.12 1.81 9.12 1.81 3.45.06 4.34-1.9 9.04-.93 2.46.37 6.22 1.63 8.39 2.41 1.03.37 1.66 1.64 1.16 2.97l-1.06 4.09c-.32.87-1.61.78-1.52-.41.08-1.05.14-4.35.1-3.56"/><path class="cls-5" d="M178.81 171.67c3.29-.95 5.75-2.47 5.48-3.4-.26-.93-3.14-.91-6.43.03-3.29.95-5.75 2.47-5.48 3.4.26.93 3.14.91 6.43-.03z"/><path class="cls-10" d="M176.78 172.16s-4.61-7.32-4.21-12.75l.68-8.61c.23-1.93 1.61-2.11 1.89 1.08.2 2.24.63 4.82.63 4.82l3.48-13.87c.37-1.19 1.65-1.53 1.38.34s-1.33 9.02-1.33 9.02l3.95-10.65c.54-1.39 2.02-1.56 1.44.51-.57 2.07-2.91 10.68-2.91 10.68l4.32-9.97c.47-1.19 1.68-1.02 1.31.54-.37 1.56-3.28 10.04-3.28 10.04l3.28-6.95c.57-.81 1.35-.38.84 1.22-.51 1.61-5.19 17.45-3.95 20.68.35.92-2.03 2.66-7.52 3.87z"/><path class="cls-31" d="M175.76 156.69s3.87 1.75 3.76 5.51l-3.76-5.51z"/><path class="cls-10" d="M175.76 156.69s3.87 1.75 3.76 5.51"/><path class="cls-5" d="M161.48 199.64c1.71 0 1.87 2.52 1.87 2.52l-3.38-.71s.91-1.47 1.51-1.81z"/><path class="cls-12" d="M172.38 171.71l2.67 24.26"/><path class="cls-4" d="M120.62 192.58l40.86 7.05c.1-.56-2.69 1.8-4.08 9.29a1.98 1.98 0 01-2.04 1.62l-51.52-2.7"/><path class="cls-12" d="M127.16 193.64l34.57 5.99s-2.26 1.02-3.33 6.51l-.68 3.14s0 2.48-5.97 1.74M184.3 168.29c1.46.44-2.19 2.44-5.48 3.39-3.29.95-6.17.96-6.43.03"/><path class="cls-10" d="M183.13 206.64l-.45 3.7c-.11 1.18-.27 2.53-.59 2.85s-.96.32-1.29-.05c-.59-.67.35-7.13.31-6.34"/><path class="cls-10" d="M181.06 206.75l-.34 3.64c-.05 1.16-.38 2.4-.83 2.89s-.92.14-1.1-.05c-.63-.63-.28-7.04-.32-6.24"/><path class="cls-10" d="M175.59 204.14c.41.13 3.3.53 3.3 2.67l-.39 4.4s-.04 1.29-.73 1.23c-.88-.07-1-1.38-1-2.09l-.24-3.31"/><path class="cls-9" d="M138.07 149.3s-4.28-13.05 6.07-16.22c10.35-3.17 15.83 10.57 15.83 10.57l-21.9 5.64z"/><path class="cls-5" d="M151.2 154.89c12.57-4.68 21.84-10.98 20.71-14.06-1.13-3.08-12.23-1.79-24.8 2.89s-21.84 10.98-20.71 14.06c1.13 3.08 12.23 1.79 24.8-2.89z"/><path class="cls-31" d="M150.11 180.78c6.44 0 11.64-3.5 15.06-6.72-5.77-3.8-11.35-6.94-11.35-12.62h-8.47c-.44 4.98-5.18 8.19-11.36 11.78 2.51 3.41 7.36 7.56 16.11 7.56z"/><path class="cls-12" d="M167.11 174.91c-5.77-3.8-13.29-7.79-13.29-13.47h-8.47c-.44 4.98-7.05 9.57-15.09 13.59"/><path class="cls-10" d="M142.26 158.09s-3.31-.81-4.07-3.05c-.7-2.07 1.81-1.63 1.81-1.63l2.25 4.68z"/><path class="cls-5" d="M151.56 164.03c-3.64.92-8.43 2.46-8.43 2.46s1.67-1.49 2.22-5.05h6.6l-.39 2.59z"/><path class="cls-10" d="M158.1 154.78s2.73-3.21 3.08-5.47c.35-2.26-2.82 0-2.82 0l-.26 5.47z"/><path class="cls-10" d="M139.43 152.64s3.06 11.58 10.67 11.58c8.3 0 9.86-17.64 9.86-17.64s-9.59-1.38-20.53 6.05z"/><path class="cls-31" d="M150.34 150.66c0 2.7 1.87 5.5 1.87 5.5h-1.87"/><path class="cls-12" d="M150.34 150.66c0 2.7 1.87 5.5 1.87 5.5h-1.87"/></g><path class="cls-5" d="M91.94 46.47l19.49-5.89-4.9-7.37-14.59 13.26z"/><path class="cls-14" d="M130.44 22.49l-1.86.7c-.54.2-1.06.44-1.56.72l-1.42.78M123.31 25.92l-3.14 1.79M117.97 29.07l-3.02 1.95"/><path class="cls-9" d="M112.13 32.64L91.74 46.71l20.36-7.81.03-6.26z"/><g><path d="M229.46 63.58c5.93 0 10.73-4.8 10.73-10.73s-4.8-10.73-10.73-10.73-10.73 4.8-10.73 10.73 4.8 10.73 10.73 10.73z" stroke-width=".7" stroke="#fbbc04" stroke-miterlimit="10" fill="#fbbc04"/><path class="cls-30" d="M225.93 44.18l4.95-4.15c.05-.05.11-.09.16-.12l.17-.11c.06-.03.12-.06.17-.09.06-.03.12-.05.18-.07.06-.02.12-.04.18-.05.06-.01.12-.02.19-.03.06 0 .12 0 .18-.01H232.33c.06 0 .12.01.18.03.06.01.12.03.18.04.06.02.12.04.17.06h.01c.05.03.11.05.16.08h.02s.1.07.14.1l.03.02s.09.06.13.1l.03.02s.09.07.13.11l.02.02s.09.09.13.14c.09.11.16.22.23.34.03.06.06.12.08.18.02.06.05.12.06.19.02.07.03.13.05.19l.03.19V55.66a2.01 2.01 0 01-4.02 0v-9.78l-1.65 1.38c-.85.71-2.12.6-2.83-.25s-.6-2.12.25-2.83m-11.7 4.44c0 2.35.46 4.62 1.37 6.77.17.41.36.81.57 1.22.12.24.26.48.39.71a17.412 17.412 0 008.29 7.33c2.14.91 4.42 1.37 6.77 1.37s4.62-.46 6.77-1.37c1.94-.82 3.69-1.97 5.22-3.43l.06-.06c.08-.08.16-.16.24-.23 1.6-1.6 2.85-3.46 3.73-5.53.91-2.14 1.37-4.42 1.37-6.77s-.46-4.62-1.37-6.77a17.412 17.412 0 00-4.33-6.1c-.18-.16-.36-.32-.54-.47a17.122 17.122 0 00-4.38-2.68c-2.14-.91-4.42-1.37-6.77-1.37s-4.62.46-6.77 1.37c-2.07.88-3.93 2.13-5.53 3.73a17.49 17.49 0 00-2.89 3.81s-.05.09-.07.13c-.28.52-.54 1.05-.77 1.58a17.21 17.21 0 00-1.37 6.77"/><path class="cls-40" d="M225.68 47.01c.71.85 1.98.96 2.83.25l1.65-1.38v-4.31c0-.62.28-1.17.72-1.54l-4.95 4.15c-.85.71-.96 1.98-.25 2.83"/><path class="cls-20" d="M230.16 55.66a2.01 2.01 0 004.02 0v-1.77l-4.02-3.12v4.89z"/><path class="cls-26" d="M233.46 43.11l-3.3 2.77v4.89l4.02 3.12V41.57c0 .57-.24 1.14-.72 1.54"/><path class="cls-27" d="M230.16 41.57v4.31l3.3-2.77a2 2 0 00.72-1.55v-.02c0-.06 0-.12-.01-.18 0-.07-.02-.13-.03-.19-.01-.06-.03-.13-.05-.19-.02-.07-.04-.13-.06-.18-.03-.07-.05-.12-.08-.18a1.85 1.85 0 00-.23-.34c-.04-.06-.08-.1-.13-.15l-.02-.02s-.09-.08-.13-.11l-.03-.02-.13-.1-.03-.02s-.1-.06-.14-.08h-.02c-.05-.04-.11-.06-.16-.08h-.01a.578.578 0 00-.17-.06c-.06-.02-.12-.03-.18-.04h-.01l-.18-.03H232.16c-.06 0-.12 0-.18.01-.06 0-.12.02-.19.03-.06.01-.12.03-.18.05-.06.02-.12.04-.18.07-.06.03-.12.06-.17.09a.99.99 0 00-.17.11c-.05.04-.11.08-.16.12-.44.37-.72.92-.72 1.54"/><g mask="url(#mask)"><path class="cls-20" d="M244.38 61.69l-.71-.55-.06.06a17.253 17.253 0 01-5.22 3.43c-2.14.91-4.42 1.37-6.77 1.37s-4.62-.46-6.77-1.37c-2.07-.88-3.93-2.13-5.53-3.73a17.145 17.145 0 01-2.76-3.6l-.69.58-1.32 1.11a19.94 19.94 0 002.94 3.74c1.83 1.83 3.97 3.27 6.35 4.28.67.28 1.34.52 2.03.73a19.776 19.776 0 005.75.84c.3 0 .6 0 .9-.02 1.66-.07 3.28-.35 4.85-.82.69-.21 1.36-.45 2.03-.73 2.26-.96 4.3-2.31 6.08-4.01l.27-.27-1.37-1.06z"/></g><g mask="url(#mask-1)"><path class="cls-27" d="M239.4 30.2a19.63 19.63 0 00-6.88-1.55c-.3-.01-.6-.02-.9-.02s-.6 0-.9.02c-2.38.1-4.69.62-6.88 1.55a19.982 19.982 0 00-9.36 8.14l-.14.24-.05.09 1.37 1.05.71.55s.05-.09.07-.13c.78-1.4 1.75-2.68 2.89-3.82 1.6-1.6 3.46-2.85 5.53-3.73 2.14-.91 4.42-1.37 6.77-1.37s4.62.46 6.77 1.37c1.59.67 3.06 1.57 4.38 2.68l.69-.58 1.32-1.11a19.84 19.84 0 00-5.38-3.38"/></g><path class="cls-40" d="M216.17 56.6c-.21-.4-.4-.81-.57-1.22-.91-2.14-1.37-4.42-1.37-6.77a17.246 17.246 0 012.14-8.35l-.71-.55-1.37-1.05-.06.1c-.38.67-.72 1.36-1.02 2.06-1.04 2.46-1.57 5.08-1.57 7.78s.53 5.31 1.57 7.78c.22.53.47 1.05.74 1.55l.1.19.14.26c.12.21.24.41.36.62l1.32-1.11.69-.58c-.14-.23-.27-.47-.39-.71"/><g mask="url(#mask-2)"><path class="cls-26" d="M251.6 48.61a19.917 19.917 0 00-5.85-14.13c-.07-.07-.14-.13-.2-.2l-.21-.2-.15-.15c-.13-.12-.27-.24-.4-.36l-1.32 1.11-.69.58c.18.15.36.31.54.47a17.412 17.412 0 014.33 6.1c.91 2.14 1.37 4.42 1.37 6.77s-.46 4.62-1.37 6.77c-.88 2.07-2.13 3.93-3.73 5.53-.08.08-.16.16-.24.23l.71.55 1.37 1.05h.01l.06-.07c1.8-1.82 3.21-3.92 4.2-6.27a19.88 19.88 0 001.57-7.78"/></g></g><path class="cls-35" d="M208.7 179.33a20.61 20.61 0 00-12.09 4.83c-3.4 2.88-5.78 6.78-6.78 11.12-1 4.34-.56 8.89 1.24 12.96s4.88 7.45 8.76 9.63l-1.61 10.54 6.64-8.53c2.88.73 5.88.82 8.8.27 2.92-.54 5.69-1.71 8.11-3.43a20.578 20.578 0 008.62-14.89 20.58 20.58 0 00-5.68-16.24c-2.06-2.14-4.56-3.81-7.32-4.89s-5.73-1.55-8.7-1.38z"/><path d="M165 1c43.81 0 84.99 17.06 115.97 48.03C311.95 80.01 329 121.19 329 165s-17.06 84.99-48.03 115.97C249.99 311.95 208.81 329 165 329s-84.99-17.06-115.97-48.03C18.06 249.99 1 208.81 1 165S18.06 80.01 49.03 49.03C80.01 18.06 121.19 1 165 1m0-1C73.87 0 0 73.87 0 165s73.87 165 165 165 165-73.87 165-165S256.13 0 165 0z"/><path class="cls-12" d="M61.55 290.42l207.54.05"/></svg>